<svg style="background:transparent" xmlns="http://www.w3.org/2000/svg" viewBox="0 0 480 300">
  <defs>
    <radialGradient id="livg" cx="38%" cy="35%" r="60%">
      <stop offset="0%" stop-color="#d44a20"/>
      <stop offset="35%" stop-color="#a02810"/>
      <stop offset="70%" stop-color="#6e1608"/>
      <stop offset="100%" stop-color="#300800"/>
    </radialGradient>
    <radialGradient id="livl" cx="30%" cy="25%" r="22%">
      <stop offset="0%" stop-color="rgba(255,200,160,0.52)"/>
      <stop offset="100%" stop-color="rgba(255,255,255,0)"/>
    </radialGradient>
    <filter id="livs"><feGaussianBlur stdDeviation="3"/></filter>
  </defs>
  <!-- Shadow -->
  <path d="M25,145 C20,72 75,20 180,14 C275,8 390,16 440,58 C488,98 490,165 465,210 C438,258 378,286 295,292 C210,298 125,282 72,245 C30,215 28,178 25,145Z" fill="rgba(0,0,0,0.22)" transform="translate(5,7)" filter="url(#livs)"/>
  <!-- Main body -->
  <path d="M25,145 C20,72 75,20 180,14 C275,8 390,16 440,58 C488,98 490,165 465,210 C438,258 378,286 295,292 C210,298 125,282 72,245 C30,215 28,178 25,145Z" fill="url(#livg)"/>
  <!-- Falciform ligament groove -->
  <path d="M238,14 Q245,130 242,285" stroke="rgba(30,5,2,0.32)" stroke-width="6" fill="none" stroke-linecap="round"/>
  <!-- Bile duct -->
  <path d="M235,285 Q248,298 255,310" stroke="#7a1e08" stroke-width="9" fill="none" stroke-linecap="round"/>
  <!-- Highlight -->
  <ellipse cx="138" cy="72" rx="90" ry="46" fill="url(#livl)" transform="rotate(-8 138 72)"/>
</svg>
